<svg width="24" height="21" viewBox="0 0 24 21" fill="none" xmlns="http://www.w3.org/2000/svg">
<path d="M11.9861 19.7952L11.9919 19.7809L11.9861 19.7952ZM11.9861 19.7952L11.9807 19.8089L11.9861 19.7952ZM12 19.3911L2.88111 10.4381C2.88035 10.4374 2.87959 10.4366 2.87883 10.4358C1.99201 9.556 1.5 8.37502 1.5 7.1506C1.5 5.92675 1.99154 4.7463 2.87758 3.86659C3.77249 2.99339 4.98978 2.49805 6.26477 2.49805C7.54111 2.49805 8.75963 2.99445 9.65481 3.86938C9.65504 3.8696 9.65526 3.86982 9.65549 3.87005L10.9498 5.13919L12 6.16895L13.0502 5.13919L14.3445 3.87005C14.3448 3.86978 14.3451 3.86951 14.3453 3.86924C15.2405 2.99439 16.459 2.49805 17.7352 2.49805C19.0102 2.49805 20.2276 2.99341 21.1225 3.86665C22.0085 4.74635 22.5 5.92677 22.5 7.1506C22.5 8.37495 22.0081 9.55586 21.1213 10.4357C21.1205 10.4365 21.1197 10.4373 21.1189 10.4381L12 19.3911Z" stroke="#231F20" stroke-width="3"/>
</svg>
