<svg width="20" height="19" viewBox="0 0 20 19" fill="none" xmlns="http://www.w3.org/2000/svg">
<path d="M16.6903 3.34378C14.8065 1.7998 12.437 0.970214 10.0002 1.00084C7.56337 0.969866 5.19381 1.7998 3.31001 3.34378C1.498 4.87281 0.5 6.91197 0.5 9.0858C0.5 11.0836 1.3499 12.9793 2.90127 14.461C2.7908 14.6469 2.66292 14.8376 2.52249 15.047C2.01303 15.7788 1.57397 16.5573 1.21156 17.3715C1.15302 17.5034 1.16243 17.6555 1.2363 17.7794C1.31018 17.9033 1.43981 17.9836 1.58372 17.9951C1.62728 17.9983 1.67502 18 1.72729 18C2.51517 17.9523 3.30026 17.8639 4.07873 17.7341C5.79177 17.4961 8.13589 17.1711 9.99983 17.1711C12.4366 17.2017 14.8062 16.3718 16.69 14.8278C18.502 13.2988 19.5 11.2596 19.5 9.08545C19.5 6.91127 18.502 4.87281 16.6903 3.34378ZM10.0002 16.282C8.07456 16.282 5.6942 16.6126 3.95641 16.8541C3.35984 16.9369 2.78244 17.017 2.34372 17.0653C2.61796 16.5388 2.92496 16.0301 3.26297 15.5422C3.4825 15.2308 3.68113 14.9054 3.8585 14.5679C3.9477 14.3876 3.90519 14.1701 3.75396 14.0369C2.23012 12.6944 1.39067 10.936 1.39067 9.08684C1.39067 5.11813 5.25305 1.89027 10.0002 1.89027C14.7473 1.89027 18.6097 5.11813 18.6097 9.08615C18.6097 13.0542 14.7487 16.282 10.0002 16.282ZM6.37092 7.35182C6.37092 7.10614 6.57024 6.9071 6.81626 6.9071H10.8243C11.0665 6.91267 11.2599 7.10997 11.2599 7.35182C11.2599 7.59366 11.0665 7.79097 10.8243 7.79654H6.81626C6.69813 7.79654 6.58488 7.74991 6.50125 7.66639C6.41762 7.58322 6.37092 7.46978 6.37092 7.35182ZM13.6294 10.8215C13.6294 11.0668 13.4301 11.2662 13.1841 11.2662H6.81591C6.56989 11.2662 6.37057 11.0672 6.37057 10.8215C6.37057 10.5758 6.56989 10.3768 6.81591 10.3768H13.1841C13.4298 10.3768 13.6291 10.5758 13.6294 10.8215Z" fill="currentColor" fill-opacity="0.9"/>
<path d="M6.32472 7.84342C6.45544 7.97389 6.63227 8.04654 6.81626 8.04654H10.8243V8.0466L10.83 8.04647C11.2074 8.03779 11.5099 7.73007 11.5099 7.35182C11.5099 6.97357 11.2074 6.66584 10.83 6.65716L10.83 6.6571H10.8243H6.81626C6.4325 6.6571 6.12092 6.96774 6.12092 7.35182C6.12092 7.53552 6.19356 7.71286 6.32472 7.84342ZM6.32472 7.84342C6.3248 7.8435 6.32488 7.84358 6.32496 7.84366L6.50125 7.66639L6.32459 7.84329C6.32464 7.84333 6.32468 7.84338 6.32472 7.84342ZM16.8516 3.15273L16.8516 3.15271L16.8488 3.15043C14.9203 1.56976 12.4947 0.720212 10.0002 0.750817C7.50565 0.719856 5.08008 1.56977 3.15154 3.15043L3.15152 3.15041L3.14879 3.15272C1.28627 4.72436 0.25 6.83106 0.25 9.0858C0.25 11.094 1.07885 12.9967 2.58357 14.5002C2.50274 14.6275 2.41356 14.7606 2.31605 14.906C1.79812 15.6502 1.3517 16.4418 0.983163 17.2699L0.983064 17.2701C0.891446 17.4765 0.906315 17.7141 1.02158 17.9074C1.1371 18.1011 1.33949 18.2264 1.56384 18.2443L1.56579 18.2445C1.61576 18.2481 1.6695 18.25 1.72729 18.25H1.73485L1.74239 18.2495C2.53772 18.2014 3.33036 18.1122 4.11645 17.9813C5.83333 17.7428 8.15651 17.4213 9.9983 17.4211C12.4934 17.4521 14.9195 16.6022 16.8485 15.0212L16.8485 15.0212L16.8512 15.0189C18.7137 13.4472 19.75 11.3405 19.75 9.08545C19.75 6.83035 18.7137 4.72436 16.8516 3.15273ZM4.0798 14.6842L4.07987 14.6842L4.08256 14.6788C4.22183 14.3973 4.15544 14.0574 3.91925 13.8493L3.91922 13.8493C2.44332 12.549 1.64067 10.8567 1.64067 9.08684C1.64067 5.29632 5.34726 2.14027 10.0002 2.14027C14.6531 2.14027 18.3597 5.29633 18.3597 9.08615C18.3597 12.876 14.6545 16.032 10.0002 16.032C8.05572 16.032 5.65984 16.365 3.92691 16.6058L3.92204 16.6065C3.92203 16.6065 3.92201 16.6065 3.922 16.6065C3.52404 16.6617 3.13688 16.7154 2.79434 16.7593C3.00241 16.3913 3.22715 16.033 3.4679 15.6854C3.69353 15.3652 3.89761 15.0309 4.0798 14.6842ZM13.8794 10.8215V10.8212C13.8789 10.4376 13.5677 10.1268 13.1841 10.1268H6.81591C6.43215 10.1268 6.12057 10.4375 6.12057 10.8215C6.12057 11.2056 6.43215 11.5162 6.81591 11.5162H13.1841C13.568 11.5162 13.8794 11.2051 13.8794 10.8215Z" stroke="#888" stroke-opacity="0.9" stroke-width="0.5"/>
</svg>
