<svg width="27" height="19" viewBox="0 0 27 19" fill="none" xmlns="http://www.w3.org/2000/svg">
<path d="M26.1861 8.86008C25.3635 7.43337 20.8392 0.274125 13.153 0.505483C6.04513 0.685428 1.93209 6.9321 0.813863 8.86008C0.701053 9.05547 0.641663 9.27712 0.641663 9.50274C0.641663 9.72836 0.701053 9.95001 0.813863 10.1454C1.62362 11.5464 5.95515 18.5 13.5257 18.5H13.847C20.9549 18.3201 25.0808 12.0734 26.1861 10.1454C26.2989 9.95001 26.3583 9.72836 26.3583 9.50274C26.3583 9.27712 26.2989 9.05547 26.1861 8.86008ZM13.7828 15.9294C8.24303 16.0579 4.63127 11.315 3.50019 9.50274C4.78551 7.43337 8.1402 3.20466 13.2815 3.07613C18.7955 2.93474 22.4201 7.69044 23.5641 9.50274C22.2402 11.5721 18.9241 15.8008 13.7828 15.9294Z" fill="#888888" fill-opacity="0.9"/>
<path d="M13.5001 5.00398C12.6104 5.00398 11.7406 5.26782 11.0008 5.76213C10.261 6.25645 9.6844 6.95904 9.34391 7.78105C9.00342 8.60307 8.91434 9.5076 9.08792 10.3802C9.2615 11.2529 9.68995 12.0545 10.3191 12.6836C10.9482 13.3128 11.7498 13.7412 12.6225 13.9148C13.4951 14.0884 14.3996 13.9993 15.2217 13.6588C16.0437 13.3183 16.7463 12.7417 17.2406 12.0019C17.7349 11.2621 17.9987 10.3924 17.9987 9.50261C17.9987 8.30949 17.5248 7.16525 16.6811 6.32159C15.8375 5.47794 14.6932 5.00398 13.5001 5.00398ZM13.5001 11.4306C13.1188 11.4306 12.746 11.3175 12.429 11.1057C12.1119 10.8938 11.8648 10.5927 11.7189 10.2404C11.573 9.88812 11.5348 9.50047 11.6092 9.12647C11.6836 8.75248 11.8672 8.40895 12.1368 8.13931C12.4064 7.86968 12.75 7.68606 13.124 7.61167C13.498 7.53728 13.8856 7.57546 14.2379 7.72138C14.5902 7.8673 14.8913 8.11442 15.1032 8.43148C15.315 8.74853 15.4281 9.12129 15.4281 9.50261C15.4281 10.0139 15.225 10.5043 14.8634 10.8659C14.5018 11.2275 14.0114 11.4306 13.5001 11.4306Z" fill="#888888" fill-opacity="0.9"/>
</svg>
