<svg width="16" height="18" viewBox="0 0 16 18" fill="none" xmlns="http://www.w3.org/2000/svg">
<path d="M7.76918 13.9993C7.00067 13.9928 6.24126 13.8325 5.53569 13.528C4.83013 13.2234 4.19271 12.7808 3.66099 12.2261C2.58146 11.0941 1.98573 9.58611 2.00026 8.02225C2.01479 6.45839 2.63842 4.96174 3.7388 3.84995L7.34902 0.233507C7.41938 0.157802 7.50499 0.0978647 7.60021 0.0576474C7.69543 0.0174302 7.7981 -0.00215358 7.90145 0.00018771C8.00494 0.00162596 8.10711 0.0236905 8.20197 0.0650893C8.29683 0.106488 8.38247 0.166389 8.45387 0.241284L12.0019 3.91217C13.0824 5.04318 13.6795 6.55058 13.6665 8.11444C13.6534 9.67829 13.0312 11.1755 11.9318 12.2883C11.3904 12.8408 10.7421 13.2775 10.0265 13.5716C9.31088 13.8658 8.54285 14.0113 7.76918 13.9993Z" fill="#5A8C93"/>
<g filter="url(#filter0_d_3076_34410)">
<ellipse cx="7.91116" cy="8.0498" rx="3.47756" ry="3.5" fill="white"/>
<rect x="6.51953" y="6.6499" width="2.78205" height="2.8" fill="#5A8C93"/>
</g>
<defs>
<filter id="filter0_d_3076_34410" x="0.433594" y="2.5498" width="14.9551" height="15" filterUnits="userSpaceOnUse" color-interpolation-filters="sRGB">
<feFlood flood-opacity="0" result="BackgroundImageFix"/>
<feColorMatrix in="SourceAlpha" type="matrix" values="0 0 0 0 0 0 0 0 0 0 0 0 0 0 0 0 0 0 127 0" result="hardAlpha"/>
<feOffset dy="2"/>
<feGaussianBlur stdDeviation="2"/>
<feComposite in2="hardAlpha" operator="out"/>
<feColorMatrix type="matrix" values="0 0 0 0 0 0 0 0 0 0 0 0 0 0 0 0 0 0 0.25 0"/>
<feBlend mode="normal" in2="BackgroundImageFix" result="effect1_dropShadow_3076_34410"/>
<feBlend mode="normal" in="SourceGraphic" in2="effect1_dropShadow_3076_34410" result="shape"/>
</filter>
</defs>
</svg>
