<svg width="29" height="29" viewBox="0 0 29 29" fill="none" xmlns="http://www.w3.org/2000/svg">
<path d="M9.80392 24.085C11.5753 24.1443 13.3405 23.8478 14.9954 23.2133C16.6502 22.5787 18.1611 21.6188 19.4386 20.3904C20.7162 19.162 21.7346 17.6899 22.4335 16.0612C23.1325 14.4325 23.4979 12.6802 23.5081 10.9079C24.3199 9.90335 24.9226 8.74667 25.281 7.50583C25.3078 7.40779 25.3056 7.30411 25.2748 7.20728C25.244 7.11044 25.1858 7.02457 25.1074 6.96002C25.0289 6.89546 24.9334 6.85497 24.8324 6.84341C24.7315 6.83186 24.6293 6.84974 24.5383 6.89489C24.1136 7.09932 23.6355 7.16535 23.1713 7.08369C22.7071 7.00203 22.2802 6.77678 21.9508 6.43968C21.5303 5.97918 21.0216 5.60777 20.4549 5.34746C19.8882 5.08714 19.275 4.94323 18.6517 4.92424C18.0283 4.90525 17.4075 5.01157 16.826 5.2369C16.2446 5.46223 15.7142 5.80199 15.2664 6.23604C14.6533 6.8298 14.2043 7.57206 13.9629 8.3907C13.7215 9.20934 13.696 10.0765 13.8888 10.9079C9.8758 11.1475 7.12059 9.24281 4.91642 6.63135C4.85021 6.55636 4.76359 6.50228 4.66714 6.4757C4.5707 6.44913 4.4686 6.45122 4.37332 6.4817C4.27804 6.51219 4.1937 6.56977 4.1306 6.6474C4.0675 6.72503 4.02837 6.81935 4.01799 6.91885C3.59808 9.24811 3.90099 11.6501 4.88602 13.8022C5.87105 15.9542 7.49104 17.7534 9.5284 18.9579C8.16234 20.5246 6.24397 21.5031 4.17372 21.6892C4.0628 21.7076 3.96042 21.7602 3.88089 21.8396C3.80136 21.9191 3.74866 22.0214 3.73018 22.1323C3.7117 22.2432 3.72835 22.3571 3.77781 22.4581C3.82727 22.5591 3.90706 22.642 4.00601 22.6954C5.8071 23.5955 7.7905 24.0708 9.80392 24.085Z" fill="white"/>
</svg>
