<svg width="61" height="60" viewBox="0 0 61 60" fill="none" xmlns="http://www.w3.org/2000/svg">
<circle cx="30.5" cy="30" r="30" fill="#231F20"/>
<path d="M27.168 32.9922H33.8346V44.6588H27.168V32.9922Z" fill="white"/>
<path d="M44.5333 26.6262L31.6834 13.493C31.5285 13.3368 31.3441 13.2128 31.1411 13.1282C30.938 13.0436 30.7201 13 30.5001 13C30.2801 13 30.0622 13.0436 29.8591 13.1282C29.656 13.2128 29.4717 13.3368 29.3168 13.493L16.4669 26.6429C16.1559 26.9564 15.9103 27.3284 15.7444 27.7376C15.5785 28.1467 15.4955 28.5847 15.5002 29.0262V42.9928C15.4989 43.846 15.8248 44.6672 16.4108 45.2873C16.9968 45.9074 17.7983 46.2792 18.6502 46.3261H23.8335V31.3262C23.8335 30.8842 24.0091 30.4603 24.3216 30.1477C24.6342 29.8351 25.0581 29.6596 25.5001 29.6596H35.5001C35.9421 29.6596 36.366 29.8351 36.6786 30.1477C36.9911 30.4603 37.1667 30.8842 37.1667 31.3262V46.3261H42.35C43.2019 46.2792 44.0034 45.9074 44.5894 45.2873C45.1754 44.6672 45.5013 43.846 45.5 42.9928V29.0262C45.5013 28.1311 45.1547 27.2705 44.5333 26.6262Z" fill="white"/>
</svg>
