<svg width="32" height="35" viewBox="0 0 32 35" fill="none" xmlns="http://www.w3.org/2000/svg">
<path d="M31.1622 23.1121L27.9589 19.9448V12.1402C28.0015 9.2421 26.9763 6.42667 25.0726 4.2138C23.1689 2.00093 20.5152 0.540074 17.6016 0.100964C15.9107 -0.118006 14.1917 0.0201446 12.5593 0.506196C10.927 0.992248 9.41882 1.81502 8.13547 2.91963C6.85212 4.02423 5.8231 5.38525 5.11706 6.91189C4.41103 8.43853 4.04422 10.0957 4.0411 11.7728V19.9448L0.837827 23.1121C0.43547 23.5143 0.162618 24.0243 0.0533808 24.5781C-0.0558567 25.132 0.00336701 25.7053 0.223648 26.2263C0.443929 26.7472 0.815494 27.1928 1.29189 27.5073C1.76829 27.8217 2.32839 27.9911 2.90216 27.9943H8.88161V28.5892C8.96473 30.3657 9.76064 32.0374 11.0949 33.2379C12.4292 34.4384 14.1931 35.0698 16 34.9939C17.8069 35.0698 19.5708 34.4384 20.9051 33.2379C22.2394 32.0374 23.0353 30.3657 23.1184 28.5892V27.9943H29.0978C29.6716 27.9911 30.2317 27.8217 30.7081 27.5073C31.1845 27.1928 31.5561 26.7472 31.7764 26.2263C31.9966 25.7053 32.0559 25.132 31.9466 24.5781C31.8374 24.0243 31.5645 23.5143 31.1622 23.1121ZM19.5592 28.5892C19.4605 29.4309 19.0354 30.2027 18.3723 30.7439C17.7093 31.285 16.8595 31.5537 16 31.4941C15.1405 31.5537 14.2907 31.285 13.6277 30.7439C12.9646 30.2027 12.5395 29.4309 12.4408 28.5892V27.9943H19.5592V28.5892Z" fill="#5E5E5E"/>
</svg>
