<svg width="57" height="57" viewBox="0 0 57 57" fill="none" xmlns="http://www.w3.org/2000/svg">
<path d="M28.2188 56.4375C12.6525 56.4375 0 43.785 0 28.2188C0 12.6525 12.6525 0 28.2188 0C43.785 0 56.4375 12.6525 56.4375 28.2188C56.4375 43.785 43.785 56.4375 28.2188 56.4375ZM28.2188 3.9375C14.8313 3.9375 3.9375 14.8313 3.9375 28.2188C3.9375 41.6063 14.8313 52.5 28.2188 52.5C41.6063 52.5 52.5 41.6063 52.5 28.2188C52.5 14.8313 41.6063 3.9375 28.2188 3.9375Z" fill="#231F20"/>
<path d="M28.2188 39.375C27.1425 39.375 26.25 38.4825 26.25 37.4062V21.6562C26.25 20.58 27.1425 19.6875 28.2188 19.6875C29.295 19.6875 30.1875 20.58 30.1875 21.6562V37.4062C30.1875 38.4825 29.295 39.375 28.2188 39.375Z" fill="#231F20"/>
<path d="M36.0938 28.875C35.595 28.875 35.0962 28.6912 34.7025 28.2975L28.2188 21.8138L21.735 28.2975C20.9737 29.0587 19.7138 29.0587 18.9525 28.2975C18.5864 27.927 18.381 27.4271 18.381 26.9062C18.381 26.3854 18.5864 25.8855 18.9525 25.515L26.8275 17.64C27.5888 16.8787 28.8487 16.8787 29.61 17.64L37.485 25.515C38.2463 26.2762 38.2463 27.5362 37.485 28.2975C37.0913 28.6912 36.5925 28.875 36.0938 28.875Z" fill="#231F20"/>
</svg>
