<svg width="271" height="55" viewBox="0 0 271 55" fill="none" xmlns="http://www.w3.org/2000/svg">
<circle cx="22" cy="22" r="22" fill="url(#paint0_linear_2221_13275)"/>
<path d="M24.8889 44L24.7011 39.6687C24.309 30.6266 16.9477 23.5 8 23.5C8.84421 23.5 9.77203 23.4932 10.7552 23.481C21.975 23.3424 31.6444 14.3498 31.6444 3M8 23.6357C15.8297 23.8498 31.4892 22.5653 37.9766 25.1339C44.4641 27.7025 46 32.0417 46 32.0417" stroke="white" stroke-width="5" stroke-linecap="round" stroke-linejoin="round"/>
<path d="M264.369 22.8161C266.415 23.7064 268.022 25.0047 269.192 26.7111C270.397 28.3804 271 30.3465 271 32.6093C271 36.2818 269.685 39.2309 267.054 41.4566C264.387 43.7195 260.825 44.8509 256.368 44.8509C251.399 44.8509 247.6 43.6267 244.969 41.1784C242.375 38.693 241.078 35.2431 241.078 30.8287H248.257C248.367 35.9479 250.997 38.5075 256.149 38.5075C258.377 38.5075 260.131 37.9511 261.41 36.8382C262.688 35.7254 263.328 34.223 263.328 32.3311C263.328 30.2909 262.67 28.7143 261.355 27.6014C260.04 26.4886 258.213 25.9321 255.875 25.9321H252.97V20.4234H255.82C260.387 20.4234 262.67 18.5872 262.67 14.9147C262.67 13.2454 262.086 11.9471 260.916 11.0197C259.747 10.0552 258.14 9.57293 256.094 9.57293C251.673 9.57293 249.353 11.6688 249.134 15.8606H242.01C242.083 11.8914 243.325 8.83102 245.736 6.67947C248.184 4.52792 251.655 3.45215 256.149 3.45215C260.35 3.45215 263.675 4.43518 266.123 6.40125C268.607 8.33023 269.849 10.964 269.849 14.3026C269.849 18.0864 268.022 20.9242 264.369 22.8161Z" fill="url(#paint1_linear_2221_13275)"/>
<path d="M79.0742 44.8944C73.4927 44.8944 68.9805 43.0582 65.5374 39.3857C62.058 35.7132 60.3184 30.7863 60.3184 24.6049C60.3184 18.3872 62.0399 13.4421 65.483 9.76959C68.8898 6.13348 73.4202 4.31543 79.0742 4.31543C83.6045 4.31543 87.4644 5.53353 90.6538 7.96972C93.8432 10.4059 95.8366 13.9329 96.6339 18.5508H89.186C88.5336 16.0055 87.3194 14.0784 85.5435 12.7694C83.8039 11.424 81.6474 10.7513 79.0742 10.7513C75.6311 10.7513 72.9128 11.9876 70.9195 14.4602C68.9623 16.8964 67.9838 20.2779 67.9838 24.6049C67.9838 28.9682 68.9623 32.368 70.9195 34.8042C72.8766 37.2404 75.5948 38.4585 79.0742 38.4585C81.7561 38.4585 84.0576 37.6585 85.9785 36.0587C87.8993 34.4588 89.0591 32.2407 89.4578 29.4046H96.797C96.3259 34.3497 94.405 38.1676 91.0344 40.8583C87.7 43.549 83.7133 44.8944 79.0742 44.8944Z" fill="black"/>
<path d="M125.1 44.0217H118.25C117.924 43.44 117.67 42.2946 117.489 40.5856C115.604 43.3127 112.596 44.6762 108.464 44.6762C105.384 44.6762 102.919 43.9308 101.071 42.44C99.2584 40.9492 98.3523 38.8766 98.3523 36.2223C98.3523 31.0954 101.94 28.1683 109.117 27.4411L113.357 27.0593C114.77 26.8775 115.785 26.5502 116.401 26.0775C117.018 25.5685 117.326 24.8231 117.326 23.8413C117.326 22.6414 116.927 21.7687 116.13 21.2233C115.368 20.6416 114.064 20.3507 112.215 20.3507C110.222 20.3507 108.79 20.6961 107.921 21.387C107.051 22.0415 106.543 23.1868 106.398 24.8231H99.6571C100.056 18.4235 104.26 15.2238 112.27 15.2238C120.062 15.2238 123.958 18.0417 123.958 23.6777V38.6767C123.958 41.1492 124.339 42.9309 125.1 44.0217ZM110.095 39.7675C112.233 39.7675 113.973 39.1857 115.314 38.0222C116.655 36.8222 117.326 35.1133 117.326 32.8952V30.3318C116.673 30.9136 115.604 31.2954 114.118 31.4772L110.421 31.9135C108.609 32.1317 107.304 32.568 106.507 33.2225C105.746 33.8406 105.365 34.7497 105.365 35.9496C105.365 37.1495 105.764 38.0949 106.561 38.7857C107.395 39.4402 108.573 39.7675 110.095 39.7675Z" fill="black"/>
<path d="M139.342 44.7853C131.151 44.7853 126.874 41.5492 126.512 35.0769H133.198C133.38 36.8222 133.941 38.0585 134.884 38.7857C135.862 39.513 137.384 39.8766 139.45 39.8766C143.147 39.8766 144.995 38.7494 144.995 36.495C144.995 35.4769 144.597 34.6951 143.799 34.1497C143.002 33.6043 141.571 33.1498 139.505 32.7862L136.297 32.2407C130.172 31.2226 127.11 28.3865 127.11 23.7323C127.11 21.0779 128.124 19.0053 130.154 17.5145C132.184 15.9873 135.047 15.2238 138.744 15.2238C146.753 15.2238 150.885 18.4054 151.139 24.7685H144.669C144.597 23.0959 144.071 21.9142 143.093 21.2233C142.114 20.4961 140.664 20.1325 138.744 20.1325C135.482 20.1325 133.851 21.2233 133.851 23.405C133.851 24.3504 134.213 25.0958 134.938 25.6412C135.663 26.1503 136.859 26.5502 138.526 26.8411L142.06 27.3865C145.467 28.0047 147.931 28.9864 149.453 30.3318C151.012 31.6771 151.791 33.5497 151.791 35.9496C151.791 38.7857 150.704 40.9674 148.529 42.4946C146.355 44.0217 143.292 44.7853 139.342 44.7853Z" fill="black"/>
<path d="M166.96 44.6762C162.828 44.6762 159.476 43.3309 156.903 40.6401C154.366 37.9858 153.097 34.4224 153.097 29.95C153.097 25.4412 154.366 21.8597 156.903 19.2053C159.403 16.5509 162.756 15.2238 166.96 15.2238C170.621 15.2238 173.611 16.2055 175.93 18.169C178.25 20.0961 179.609 22.7141 180.008 26.023H173.158C172.831 24.3868 172.125 23.1323 171.037 22.2596C169.95 21.387 168.591 20.9506 166.96 20.9506C164.822 20.9506 163.136 21.7324 161.904 23.2959C160.708 24.8231 160.11 27.0411 160.11 29.95C160.11 32.8589 160.726 35.0951 161.959 36.6586C163.191 38.1858 164.858 38.9494 166.96 38.9494C168.627 38.9494 170.023 38.4949 171.146 37.5858C172.306 36.6404 173.013 35.2951 173.266 33.5497H180.116C179.754 36.9313 178.377 39.6402 175.985 41.6764C173.593 43.6763 170.584 44.6762 166.96 44.6762Z" fill="black"/>
<path d="M208.216 44.0217H201.366C201.04 43.44 200.786 42.2946 200.605 40.5856C198.72 43.3127 195.712 44.6762 191.58 44.6762C188.5 44.6762 186.035 43.9308 184.187 42.44C182.375 40.9492 181.469 38.8766 181.469 36.2223C181.469 31.0954 185.057 28.1683 192.233 27.4411L196.473 27.0593C197.887 26.8775 198.902 26.5502 199.518 26.0775C200.134 25.5685 200.442 24.8231 200.442 23.8413C200.442 22.6414 200.043 21.7687 199.246 21.2233C198.485 20.6416 197.18 20.3507 195.332 20.3507C193.338 20.3507 191.907 20.6961 191.037 21.387C190.167 22.0415 189.66 23.1868 189.515 24.8231H182.773C183.172 18.4235 187.376 15.2238 195.386 15.2238C203.178 15.2238 207.074 18.0417 207.074 23.6777V38.6767C207.074 41.1492 207.455 42.9309 208.216 44.0217ZM193.211 39.7675C195.35 39.7675 197.089 39.1857 198.43 38.0222C199.771 36.8222 200.442 35.1133 200.442 32.8952V30.3318C199.789 30.9136 198.72 31.2954 197.234 31.4772L193.538 31.9135C191.725 32.1317 190.421 32.568 189.623 33.2225C188.862 33.8406 188.482 34.7497 188.482 35.9496C188.482 37.1495 188.88 38.0949 189.678 38.7857C190.511 39.4402 191.689 39.7675 193.211 39.7675Z" fill="black"/>
<path d="M230.95 19.5325V5.1881H237.8V44.0217H231.168V40.0947C229.102 43.1491 226.148 44.6762 222.306 44.6762C218.428 44.6762 215.366 43.3309 213.119 40.6401C210.835 37.9494 209.694 34.3861 209.694 29.95C209.694 25.4412 210.835 21.8597 213.119 19.2053C215.329 16.5509 218.392 15.2238 222.306 15.2238C226.075 15.2238 228.957 16.66 230.95 19.5325ZM216.707 30.1682C216.707 33.077 217.341 35.2769 218.609 36.7677C219.878 38.2585 221.636 39.0039 223.883 39.0039C226.13 39.0039 227.906 38.2221 229.211 36.6586C230.479 35.0951 231.113 32.8589 231.113 29.95C231.113 27.0411 230.479 24.8049 229.211 23.2414C227.942 21.6778 226.166 20.8961 223.883 20.8961C221.672 20.8961 219.914 21.7142 218.609 23.3505C217.341 24.9867 216.707 27.2593 216.707 30.1682Z" fill="black"/>
<defs>
<linearGradient id="paint0_linear_2221_13275" x1="-2.19713e-07" y1="22" x2="49.617" y2="22" gradientUnits="userSpaceOnUse">
<stop stop-color="#EA4225"/>
<stop offset="0.460147" stop-color="#DC9E3D"/>
<stop offset="1" stop-color="#8042F2"/>
</linearGradient>
<linearGradient id="paint1_linear_2221_13275" x1="241.078" y1="30.0656" x2="275.807" y2="21.5474" gradientUnits="userSpaceOnUse">
<stop stop-color="#8042F2"/>
<stop offset="0.385417" stop-color="#367AB3"/>
<stop offset="0.8125" stop-color="#84CE9C"/>
</linearGradient>
</defs>
</svg>
